<svg width="120" height="120" viewBox="0 0 120 120" fill="none" xmlns="http://www.w3.org/2000/svg"><rect opacity="0.01" x="0.5" y="0.5" width="119" height="119" fill="white" stroke="#979797"></rect><path fill-rule="evenodd" clip-rule="evenodd" d="M80.4307 12.006H80.4142C80.4142 12.006 77.8912 8.24551 73.7407 8.48551C73.7407 8.48551 66.0967 8.47501 66.0967 17.715C66.0967 17.715 66.0967 26.3085 80.4142 35.07H80.4487C94.7647 26.3085 94.7647 17.715 94.7647 17.715C94.7647 8.47501 87.1192 8.48551 87.1192 8.48551C82.9717 8.24551 80.4487 12.006 80.4487 12.006H80.4307Z" stroke="#AAAAAA" stroke-width="2" stroke-linecap="round" stroke-linejoin="round"></path><path d="M69.1611 17.4537C69.3126 19.3167 69.9771 22.0797 72.8331 24.8187" stroke="#AAAAAA" stroke-width="2" stroke-linecap="round" stroke-linejoin="round"></path><path d="M60.5868 17.6514H27.9678L23.5068 76.5414H97.5138L94.2768 33.8259" stroke="#AAAAAA" stroke-width="2" stroke-linecap="round" stroke-linejoin="round"></path><path d="M39.2578 60.1247L60.4438 37.9247L75.6403 53.8757" stroke="#AAAAAA" stroke-width="2" stroke-linecap="round" stroke-linejoin="round"></path><path d="M32.7881 57.1641L40.6526 49.1661L45.0386 54.1056" stroke="#AAAAAA" stroke-width="2" stroke-linecap="round" stroke-linejoin="round"></path><path d="M71.3564 58.6948L80.3339 48.5953L88.1924 56.7268" stroke="#AAAAAA" stroke-width="2" stroke-linecap="round" stroke-linejoin="round"></path><path d="M106.823 78.9552V104.862C106.823 108.445 103.913 111.37 100.328 111.37H21.038C17.453 111.37 14.543 108.445 14.543 104.862V79.5702V78.9552" stroke="#AAAAAA" stroke-width="2" stroke-linecap="round" stroke-linejoin="round"></path><path d="M98.0931 44.0963L106.763 77.7863C106.823 78.1898 106.853 78.5798 106.823 78.9548C106.673 81.8663 104.258 84.2648 101.228 84.2648H78.6981C77.8281 84.2648 77.1231 84.9713 77.1231 85.8413V90.7763C77.1231 92.7113 75.5481 94.2863 73.5981 94.2863H46.8531C44.9031 94.2863 43.3281 92.7113 43.3281 90.7763V86.6063C43.3281 85.3148 42.2781 84.2648 40.9881 84.2648H20.0781C17.2431 84.2648 14.9631 82.2113 14.5431 79.5698C14.4531 79.0013 14.4531 78.4013 14.5431 77.7863L24.5781 40.3613" stroke="#AAAAAA" stroke-width="2" stroke-linecap="round" stroke-linejoin="round"></path></svg>
