<svg width="140" height="140" viewBox="0 0 140 140" fill="none" xmlns="http://www.w3.org/2000/svg"><circle opacity="0.3" cx="104.72" cy="28.2606" r="13.2606" fill="url(#no_comment_paint0_linear)"></circle><circle opacity="0.24" cx="31.7859" cy="96.774" r="18.7859" fill="url(#no_comment_paint1_linear)"></circle><mask id="path-3-inside-1" fill="white"><path fill-rule="evenodd" clip-rule="evenodd" d="M23.8403 28.2607C22.7358 28.2607 21.8403 29.1561 21.8403 30.2606V87.0386C21.8403 88.1432 22.7358 89.0386 23.8403 89.0386H29V98.5759C29 100.358 31.1543 101.25 32.4142 99.9901L43.3657 89.0386H102.719C103.824 89.0386 104.719 88.1432 104.719 87.0386V30.2607C104.719 29.1561 103.824 28.2607 102.719 28.2607H23.8403Z"></path></mask><path fill-rule="evenodd" clip-rule="evenodd" d="M23.8403 28.2607C22.7358 28.2607 21.8403 29.1561 21.8403 30.2606V87.0386C21.8403 88.1432 22.7358 89.0386 23.8403 89.0386H29V98.5759C29 100.358 31.1543 101.25 32.4142 99.9901L43.3657 89.0386H102.719C103.824 89.0386 104.719 88.1432 104.719 87.0386V30.2607C104.719 29.1561 103.824 28.2607 102.719 28.2607H23.8403Z" fill="#F7F7F7"></path><path d="M29 89.0386H31V87.0386H29V89.0386ZM32.4142 99.9901L33.8284 101.404L33.8284 101.404L32.4142 99.9901ZM43.3657 89.0386V87.0386H42.5373L41.9515 87.6244L43.3657 89.0386ZM23.8403 30.2606V30.2607V26.2607C21.6312 26.2607 19.8403 28.0515 19.8403 30.2606H23.8403ZM23.8403 87.0386V30.2606H19.8403V87.0386H23.8403ZM23.8403 87.0386H23.8403H19.8403C19.8403 89.2477 21.6312 91.0386 23.8403 91.0386V87.0386ZM29 87.0386H23.8403V91.0386H29V87.0386ZM31 98.5759V89.0386H27V98.5759H31ZM31 98.5759L31 98.5759H27C27 102.14 31.3086 103.924 33.8284 101.404L31 98.5759ZM41.9515 87.6244L31 98.5759L33.8284 101.404L44.7799 90.4528L41.9515 87.6244ZM102.719 87.0386H43.3657V91.0386H102.719V87.0386ZM102.719 87.0386V91.0386C104.928 91.0386 106.719 89.2477 106.719 87.0386H102.719ZM102.719 30.2607V87.0386H106.719V30.2607H102.719ZM102.719 30.2607H106.719C106.719 28.0515 104.928 26.2607 102.719 26.2607V30.2607ZM23.8403 30.2607H102.719V26.2607H23.8403V30.2607Z" fill="#EAEAEA" mask="url(#path-3-inside-1)"></path><mask id="path-5-inside-2" fill="white"><path fill-rule="evenodd" clip-rule="evenodd" d="M124 69C125.105 69 126 69.8954 126 71V114.517C126 115.622 125.105 116.517 124 116.517H118.531V123.145C118.531 124.927 116.377 125.819 115.117 124.559L107.636 117.078C107.463 116.905 107.331 116.716 107.236 116.517H63.9069C62.8023 116.517 61.9069 115.622 61.9069 114.517V71C61.9069 69.8954 62.8023 69 63.9069 69H124Z"></path></mask><path fill-rule="evenodd" clip-rule="evenodd" d="M124 69C125.105 69 126 69.8954 126 71V114.517C126 115.622 125.105 116.517 124 116.517H118.531V123.145C118.531 124.927 116.377 125.819 115.117 124.559L107.636 117.078C107.463 116.905 107.331 116.716 107.236 116.517H63.9069C62.8023 116.517 61.9069 115.622 61.9069 114.517V71C61.9069 69.8954 62.8023 69 63.9069 69H124Z" fill="#F7F7F7"></path><path d="M118.531 116.517H116.531V114.517H118.531V116.517ZM115.117 124.559L113.703 125.974L113.703 125.974L115.117 124.559ZM107.636 117.078L109.05 115.664L109.05 115.664L107.636 117.078ZM107.236 116.517V114.517H108.495L109.039 115.653L107.236 116.517ZM124 71V71V67C126.209 67 128 68.7909 128 71H124ZM124 114.517V71H128V114.517H124ZM124 114.517H124H128C128 116.726 126.209 118.517 124 118.517V114.517ZM118.531 114.517H124V118.517H118.531V114.517ZM116.531 123.145V116.517H120.531V123.145H116.531ZM116.531 123.145L116.531 123.145H120.531C120.531 126.709 116.223 128.493 113.703 125.974L116.531 123.145ZM109.05 115.664L116.531 123.145L113.703 125.974L106.222 118.492L109.05 115.664ZM109.039 115.653C109.038 115.65 109.037 115.649 109.038 115.65C109.038 115.651 109.042 115.656 109.05 115.664L106.222 118.492C105.891 118.161 105.626 117.786 105.432 117.381L109.039 115.653ZM63.9069 114.517H107.236V118.517H63.9069V114.517ZM63.9069 114.517V114.517V118.517C61.6978 118.517 59.9069 116.726 59.9069 114.517H63.9069ZM63.9069 71V114.517H59.9069V71H63.9069ZM63.9069 71H59.9069C59.9069 68.7909 61.6977 67 63.9069 67V71ZM124 71H63.9069V67H124V71Z" fill="#EAEAEA" mask="url(#path-5-inside-2)"></path><rect opacity="0.5" x="70" y="81" width="37.5718" height="7" rx="3.5" fill="url(#no_comment_paint2_linear)"></rect><rect opacity="0.25" x="70" y="93.4867" width="27" height="7" rx="3.5" fill="url(#no_comment_paint3_linear)"></rect><rect x="32" y="57" width="32" height="7" rx="3.5" fill="url(#no_comment_paint4_linear)"></rect><g opacity="0.68"><rect x="32" y="44" width="52" height="7" rx="3.5" fill="url(#no_comment_paint5_linear)"></rect></g><defs><linearGradient id="no_comment_paint0_linear" x1="104.72" y1="15" x2="104.72" y2="41.4732" gradientUnits="userSpaceOnUse"><stop stop-color="#C8C8C8"></stop><stop offset="1" stop-color="#D5D5D5" stop-opacity="0.4"></stop></linearGradient><linearGradient id="no_comment_paint1_linear" x1="1.17673" y1="77.9022" x2="18.7818" y2="124.362" gradientUnits="userSpaceOnUse"><stop stop-color="#EEEEEE"></stop><stop offset="1" stop-color="#D8D8D8"></stop></linearGradient><linearGradient id="no_comment_paint2_linear" x1="70.3757" y1="84.9375" x2="107.197" y2="84.6148" gradientUnits="userSpaceOnUse"><stop stop-color="#B8B8B8"></stop><stop offset="1" stop-color="#DBDBDB"></stop></linearGradient><linearGradient id="no_comment_paint3_linear" x1="70.27" y1="97.4242" x2="96.7317" y2="97.2576" gradientUnits="userSpaceOnUse"><stop stop-color="#B8B8B8"></stop><stop offset="1" stop-color="#DBDBDB"></stop></linearGradient><linearGradient id="no_comment_paint4_linear" x1="64" y1="60.5" x2="32" y2="60.5" gradientUnits="userSpaceOnUse"><stop stop-color="#ECECEC"></stop><stop offset="1" stop-color="#E1E1E1"></stop></linearGradient><linearGradient id="no_comment_paint5_linear" x1="32" y1="46.9167" x2="83.1754" y2="48.0477" gradientUnits="userSpaceOnUse"><stop stop-color="#C8C8C8"></stop><stop offset="1" stop-color="#D5D5D5" stop-opacity="0.4"></stop></linearGradient></defs></svg>
