<svg width="120" height="120" viewBox="0 0 120 120" fill="none" xmlns="http://www.w3.org/2000/svg"><rect opacity="0.5" width="120" height="120" fill="white" fill-opacity="0.01"></rect><path d="M104.396 58.6378V103.9C104.396 105.391 103.187 106.602 101.696 106.602H12.597C11.106 106.602 9.89551 105.391 9.89551 103.9V23.4658C9.89551 21.9748 11.106 20.7643 12.597 20.7643H65.982" stroke="#AAAAAA" stroke-width="2" stroke-linecap="round" stroke-linejoin="round"></path><path d="M32.2494 33.8425H58.171" stroke="#AAAAAA" stroke-width="2" stroke-linecap="round" stroke-linejoin="round"></path><path d="M27.7494 33.8425H23.2494" stroke="#AAAAAA" stroke-width="2" stroke-linecap="round" stroke-linejoin="round"></path><path d="M22.8115 42.6505H44.671" stroke="#AAAAAA" stroke-width="2" stroke-linecap="round" stroke-linejoin="round"></path><path d="M22.8115 42.6505H44.671" stroke="#AAAAAA" stroke-width="2" stroke-linecap="round" stroke-linejoin="round"></path><path d="M32.8506 88.0446V91.7316" stroke="#AAAAAA" stroke-width="2" stroke-linecap="round" stroke-linejoin="round"></path><path d="M39.6113 82.6599V91.7319" stroke="#AAAAAA" stroke-width="2" stroke-linecap="round" stroke-linejoin="round"></path><path d="M48 85.5V91.818" stroke="#AAAAAA" stroke-width="2" stroke-linecap="round" stroke-linejoin="round"></path><path d="M57.1455 75V90.957" stroke="#AAAAAA" stroke-width="2" stroke-linecap="round" stroke-linejoin="round"></path><path d="M29.707 85.4643L39.8671 75.9881L46.1209 80.787L58.3459 68.844" stroke="#AAAAAA" stroke-width="2" stroke-linecap="round" stroke-linejoin="round"></path><path d="M22.8115 51.4586H50.671" stroke="#AAAAAA" stroke-width="2" stroke-linecap="round" stroke-linejoin="round"></path><path d="M22.4512 66.8571V95.5071H62.5972" stroke="#AAAAAA" stroke-width="2" stroke-linecap="round" stroke-linejoin="round"></path><path fill-rule="evenodd" clip-rule="evenodd" d="M77.3389 15.4762C69.0739 22.5307 67.0654 34.1647 71.8249 43.4152L68.8594 52.3597L77.9209 50.8747C86.3419 57.5947 98.6104 57.6307 107.12 50.3677C116.763 42.1357 117.918 27.6517 109.694 18.0157C101.468 8.37972 86.9839 7.24572 77.3389 15.4762Z" stroke="#AAAAAA" stroke-width="2" stroke-linecap="round" stroke-linejoin="round"></path><path d="M80.6885 28.257L86.516 30.447L80.6885 32.6355" stroke="#AAAAAA" stroke-width="2" stroke-linecap="round" stroke-linejoin="round"></path><path d="M104.223 28.257L98.3955 30.447L104.223 32.6355" stroke="#AAAAAA" stroke-width="2" stroke-linecap="round" stroke-linejoin="round"></path><path fill-rule="evenodd" clip-rule="evenodd" d="M96.6945 41.4509C96.6945 44.2259 95.055 46.4744 93.0345 46.4744C91.0125 46.4744 89.373 44.2259 89.373 41.4509C89.373 38.6759 91.0125 36.4274 93.0345 36.4274C95.055 36.4274 96.6945 38.6759 96.6945 41.4509Z" stroke="#AAAAAA" stroke-width="2" stroke-linecap="round" stroke-linejoin="round"></path><path d="M93.5897 80.9548C93.5897 87.6673 88.1492 93.1093 81.4367 93.1093C74.7242 93.1093 69.2822 87.6673 69.2822 80.9548C69.2822 74.2423 74.7242 68.8003 81.4367 68.8003" stroke="#AAAAAA" stroke-width="2" stroke-linecap="round" stroke-linejoin="round"></path><path fill-rule="evenodd" clip-rule="evenodd" d="M81.4366 80.9548L81.4141 67.0558H81.4366C89.0611 67.0558 95.3341 73.3303 95.3341 80.9548H81.4366Z" stroke="#AAAAAA" stroke-width="2" stroke-linecap="round" stroke-linejoin="round"></path></svg>
