<svg width="120" height="120" viewBox="0 0 120 120" fill="none" xmlns="http://www.w3.org/2000/svg"><rect opacity="0.01" width="120" height="120" fill="white"></rect><path d="M44.6396 77.6964H19.1719V14.194H60.0648" stroke="#AAAAAA" stroke-width="2" stroke-linecap="round" stroke-linejoin="round"></path><path d="M100.819 48.4495V77.6968H58.0918" stroke="#AAAAAA" stroke-width="2" stroke-linecap="round" stroke-linejoin="round"></path><path d="M40.3935 77.6965C38.7272 78.9083 36.4353 79.8551 36.098 82.0515C35.5354 85.7265 34.9728 87.7769 34.4084 91.4501C34.3633 91.7441 34.32 92.0506 34.4156 92.3301C34.5021 92.5862 34.6951 92.79 34.8826 92.9847C35.3569 93.4752 37.9662 96.6923 38.7957 95.5039" stroke="#AAAAAA" stroke-width="2" stroke-linecap="round" stroke-linejoin="round"></path><path fill-rule="evenodd" clip-rule="evenodd" d="M55.0305 66.382C55.0305 68.5316 53.3606 69.2312 51.3013 69.2312C49.2401 69.2312 47.5703 68.5316 47.5703 66.382V64.6166C47.5703 62.4653 49.2401 60.7216 51.3013 60.7216C53.3606 60.7216 55.0305 62.4653 55.0305 64.6166V66.382Z" stroke="#AAAAAA" stroke-width="2" stroke-linecap="round" stroke-linejoin="round"></path><path d="M44.6405 73.2375V81.4912C44.6405 81.4912 41.0033 87.0182 40.3938 90.8448C38.3561 103.652 43.1059 108.156 43.1059 108.156L42.8553 112.906" stroke="#AAAAAA" stroke-width="2" stroke-linecap="round" stroke-linejoin="round"></path><path d="M57.9596 77.6982V65.6271C57.9596 61.1441 54.9788 57.5123 51.3001 57.5123C47.6214 57.5123 44.6406 61.1441 44.6406 65.6271V73.2369" stroke="#AAAAAA" stroke-width="2" stroke-linecap="round" stroke-linejoin="round"></path><path d="M69.445 77.6982L65.7014 79.653C65.7014 79.653 60.1888 81.2994 57.96 79.8658V77.6982" stroke="#AAAAAA" stroke-width="2" stroke-linecap="round" stroke-linejoin="round"></path><path d="M75.71 112.304C75.1726 109.613 74.6731 106.815 75.3457 104.155C77.0011 97.6145 81.7852 91.7971 84.0772 85.4315C85.0095 82.8384 82.5732 80.2976 81.9511 77.6973" stroke="#AAAAAA" stroke-width="2" stroke-linecap="round" stroke-linejoin="round"></path><path fill-rule="evenodd" clip-rule="evenodd" d="M96.2434 13.4089C96.2434 13.7353 96.5085 14.0004 96.8366 14.0004C97.163 14.0004 97.4281 13.7353 97.4281 13.4089C97.4281 12.0781 98.5119 10.9943 99.8427 10.9943C100.169 10.9943 100.434 10.7274 100.434 10.401C100.434 10.0746 100.169 9.80773 99.8427 9.80773C98.5119 9.80773 97.4281 8.72576 97.4281 7.39675C97.4281 7.06855 97.163 6.80347 96.8366 6.80347C96.5085 6.80347 96.2434 7.06855 96.2434 7.39675C96.2434 8.72576 95.1614 9.80773 93.8306 9.80773C93.5024 9.80773 93.2373 10.0746 93.2373 10.401C93.2373 10.7274 93.5024 10.9943 93.8306 10.9943C95.1614 10.9943 96.2434 12.0781 96.2434 13.4089Z" fill="#AAAAAA"></path><path fill-rule="evenodd" clip-rule="evenodd" d="M66.9639 42.7504H73.4322V18.7451H66.9639V42.7504Z" stroke="#AAAAAA" stroke-width="2" stroke-linecap="round" stroke-linejoin="round"></path><path d="M73.4326 40.1251L75.1439 40.6066L81.4987 41.4163C85.722 42.0835 90.9821 42.5018 95.6256 41.6651" stroke="#AAAAAA" stroke-width="2" stroke-linecap="round" stroke-linejoin="round"></path><path d="M95.6265 41.6643C98.0465 41.1576 98.4288 39.3904 98.564 38.3048L99.3791 20.4758C99.3791 19.1648 98.317 18.1063 97.0078 18.1063L87.5244 18.2037V13.4124C87.3765 7.48678 80.69 8.8735 80.69 8.8735C80.6719 9.74809 80.6593 10.6191 80.6359 11.4919C80.6052 12.6387 80.6647 13.7928 80.5745 14.9379C80.1904 19.8573 76.8562 19.7094 73.5977 20.4506" stroke="#AAAAAA" stroke-width="2" stroke-linecap="round" stroke-linejoin="round"></path><path d="M29.9883 25.1989H58.0924" stroke="#AAAAAA" stroke-width="2" stroke-linecap="round" stroke-linejoin="round"></path><path d="M29.9883 45.2305H58.0924" stroke="#AAAAAA" stroke-width="2" stroke-linecap="round" stroke-linejoin="round"></path><path d="M29.9883 63.7174H39.8865" stroke="#AAAAAA" stroke-width="2" stroke-linecap="round" stroke-linejoin="round"></path><path d="M63.6826 63.7174H91.4729" stroke="#AAAAAA" stroke-width="2" stroke-linecap="round" stroke-linejoin="round"></path></svg>
