<svg width="140" height="142" viewBox="0 0 140 142" fill="none" xmlns="http://www.w3.org/2000/svg"><path fill-rule="evenodd" clip-rule="evenodd" d="M47.7854 77.3783C48.0049 78.2897 48.9218 78.8506 49.8332 78.631L61.7458 75.761C62.6572 75.5414 63.2181 74.6246 62.9985 73.7132C62.7789 72.8018 61.8621 72.2409 60.9506 72.4605L49.0381 75.3305C48.1266 75.55 47.5658 76.4669 47.7854 77.3783ZM58.2792 88.6371C59.0789 89.1263 60.1238 88.8745 60.613 88.0748L63.761 82.9285C64.2502 82.1288 63.9985 81.0839 63.1987 80.5947C62.399 80.1055 61.3541 80.3572 60.8649 81.157L57.7169 86.3032C57.2277 87.103 57.4794 88.1479 58.2792 88.6371Z" fill="#DDDDDD"></path><path d="M65.2439 55.6L44.4569 33.73C36.7253 25.5955 23.8633 25.269 15.7288 33.0006C7.5943 40.7323 7.26773 53.5943 14.9994 61.7288L35.7864 83.5988L37.6601 78.4197L42.9276 76.8112L20.8679 53.6022C20.8679 53.6022 16.6699 47.3979 23.3648 41.0345C30.0597 34.6711 36.0431 39.1786 36.0431 39.1786L57.6785 61.9413L63.7944 61.2254L65.2439 55.6Z" fill="#F7F7F7"></path><path fill-rule="evenodd" clip-rule="evenodd" d="M36.0431 39.1786L57.6785 61.9413L63.7944 61.2254L65.2439 55.6L44.4569 33.73C36.7253 25.5955 23.8633 25.269 15.7288 33.0006C7.5943 40.7323 7.26773 53.5943 14.9994 61.7288L35.7864 83.5988L37.6601 78.4197L42.9276 76.8112L20.8679 53.6022C20.8679 53.6022 16.6699 47.3979 23.3648 41.0345C30.0597 34.6711 36.0431 39.1786 36.0431 39.1786ZM39.805 75.9899L19.5408 54.6698L19.462 54.5535L20.8679 53.6022C19.462 54.5535 19.4615 54.5526 19.4609 54.5517L19.4596 54.5499L19.4567 54.5456L19.4499 54.5354L19.4319 54.5078C19.4179 54.4864 19.4003 54.4587 19.3794 54.4249C19.3376 54.3575 19.2827 54.2657 19.2187 54.151C19.0908 53.9221 18.9251 53.5998 18.7539 53.1963C18.413 52.3926 18.0409 51.2449 17.9152 49.8578C17.6569 47.007 18.4631 43.3515 22.1954 39.8041C25.9276 36.2567 29.6193 35.637 32.4533 36.0397C33.8322 36.2356 34.9596 36.6654 35.745 37.0467C36.1393 37.2382 36.4527 37.42 36.6749 37.5593C36.7861 37.6291 36.875 37.6886 36.9402 37.7337C36.9729 37.7563 36.9996 37.7754 37.0204 37.7904L37.047 37.8098L37.0569 37.8171L37.0609 37.8202L37.0628 37.8215C37.0636 37.8222 37.0644 37.8228 36.0431 39.1786L37.0644 37.8228L37.1767 37.9073L58.3241 60.1566L62.441 59.6748L63.3654 56.0875L43.2266 34.8995C36.1408 27.4445 24.3532 27.1452 16.8982 34.231C9.44328 41.3168 9.14399 53.1044 16.2298 60.5593L35.1245 80.4385L36.3526 77.0441L39.805 75.9899Z" fill="#DDDDDD"></path><path d="M105.598 59.6463L120.017 86.1512C125.379 96.0096 121.735 108.349 111.877 113.712C102.018 119.074 89.6789 115.43 84.3161 105.572L69.8978 79.0668L75.4021 78.8765L78.5525 74.3588L93.8535 102.486C93.8535 102.486 98.4663 108.389 106.58 103.975C114.694 99.5614 112.245 92.4819 112.245 92.4819L97.2378 64.8952L99.7997 59.2957L105.598 59.6463Z" fill="#F7F7F7"></path><path fill-rule="evenodd" clip-rule="evenodd" d="M112.245 92.4819L97.2378 64.8952L99.7997 59.2957L105.598 59.6463L120.017 86.1512C125.379 96.0096 121.735 108.349 111.877 113.712C102.018 119.074 89.6789 115.43 84.3161 105.572L69.8978 79.0668L75.4021 78.8765L78.5525 74.3588L93.8535 102.486C93.8535 102.486 98.4663 108.389 106.58 103.975C114.694 99.5614 112.245 92.4819 112.245 92.4819ZM78.3738 77.5827L92.4295 103.421L92.516 103.532L93.8535 102.486C92.516 103.532 92.5166 103.533 92.5173 103.533L92.5187 103.535L92.5219 103.539L92.5295 103.549L92.5502 103.574C92.5663 103.594 92.5872 103.62 92.6129 103.65C92.6642 103.71 92.7347 103.791 92.8241 103.887C93.0026 104.079 93.2583 104.336 93.5896 104.623C94.2496 105.194 95.2273 105.901 96.5085 106.448C99.1418 107.57 102.868 107.927 107.391 105.466C111.914 103.006 113.639 99.6835 114.128 96.863C114.365 95.4906 114.303 94.2857 114.182 93.4211C114.121 92.9871 114.044 92.6329 113.98 92.3787C113.948 92.2513 113.918 92.1485 113.895 92.0725C113.884 92.0345 113.874 92.0032 113.866 91.9788L113.856 91.9476L113.852 91.9359L113.85 91.9311L113.85 91.9289C113.849 91.9279 113.849 91.9269 112.245 92.4819L113.849 91.9269L113.803 91.7942L99.1346 64.8296L100.859 61.0604L104.557 61.2839L118.525 86.9623C123.44 95.9972 120.1 107.306 111.065 112.221C102.031 117.135 90.7221 113.795 85.8072 104.761L72.7014 80.6684L76.309 80.5436L78.3738 77.5827Z" fill="#DDDDDD"></path><path fill-rule="evenodd" clip-rule="evenodd" d="M85.929 47.8192C86.6543 48.4131 86.7608 49.4826 86.1669 50.208L77.5633 60.7148C76.9694 61.4402 75.8999 61.5467 75.1746 60.9527C74.4492 60.3588 74.3427 59.2893 74.9366 58.5639L83.5402 48.0571C84.1341 47.3318 85.2036 47.2252 85.929 47.8192ZM88.9355 65.3023C89.0284 66.2351 88.3475 67.0667 87.4146 67.1596L81.4116 67.7575C80.4787 67.8504 79.6471 67.1695 79.5542 66.2366C79.4613 65.3037 80.1422 64.4722 81.0751 64.3792L87.0782 63.7814C88.0111 63.6884 88.8426 64.3694 88.9355 65.3023Z" fill="#DDDDDD"></path><circle cx="78.4655" cy="83.8113" r="1.23154" transform="rotate(-43.5456 78.4655 83.8113)" fill="#EAEAEA"></circle><circle cx="33.7411" cy="74.6264" r="1.23154" transform="rotate(-43.5456 33.7411 74.6264)" fill="#EAEAEA"></circle></svg>
