<svg width="120" height="120" viewBox="0 0 120 120" fill="none" xmlns="http://www.w3.org/2000/svg"><rect width="120" height="120" fill="white" fill-opacity="0.01"></rect><path fill-rule="evenodd" clip-rule="evenodd" d="M14.5421 74.1155C14.4521 73.5455 14.4521 72.9455 14.5421 72.3305L26.0771 16.0655C26.4971 13.4255 28.7771 11.474 31.4471 11.474H89.8421C92.5271 11.474 94.8071 13.4255 95.2271 16.0655L106.762 72.3305C106.822 72.7355 106.852 73.1255 106.822 73.5005C106.672 76.409 104.257 78.8105 101.227 78.8105H78.6971C77.8271 78.8105 77.1221 79.5155 77.1221 80.3855V85.3205C77.1221 87.2555 75.5471 88.8305 73.5971 88.8305H46.8521C44.9021 88.8305 43.3271 87.2555 43.3271 85.3205V81.149C43.3271 79.8605 42.2771 78.8105 40.9871 78.8105H20.0771C17.2421 78.8105 14.9621 76.7555 14.5421 74.1155Z" fill="#F4F4F4"></path><path fill-rule="evenodd" clip-rule="evenodd" d="M106.822 73.5002V99.4052C106.822 102.99 103.912 105.914 100.327 105.914H21.037C17.452 105.914 14.542 102.99 14.542 99.4052V74.1152C14.962 76.7552 17.242 78.8102 20.077 78.8102H40.987C42.277 78.8102 43.327 79.8602 43.327 81.1502V85.3202C43.327 87.2552 44.902 88.8302 46.852 88.8302H73.597C75.547 88.8302 77.122 87.2552 77.122 85.3202V80.3852C77.122 79.5152 77.827 78.8102 78.697 78.8102H101.227C104.257 78.8102 106.672 76.4087 106.822 73.5002Z" fill="white"></path><path d="M106.822 73.5002V99.4052C106.822 102.99 103.912 105.914 100.327 105.914H21.037C17.452 105.914 14.542 102.99 14.542 99.4052V74.1152V73.5002" stroke="#AAAAAA" stroke-width="2" stroke-linecap="round" stroke-linejoin="round"></path><path fill-rule="evenodd" clip-rule="evenodd" d="M106.822 73.5003C106.672 76.4088 104.257 78.8103 101.227 78.8103H78.6971C77.8271 78.8103 77.1221 79.5153 77.1221 80.3853V85.3203C77.1221 87.2553 75.5471 88.8303 73.5971 88.8303H46.8521C44.9021 88.8303 43.3271 87.2553 43.3271 85.3203V81.1503C43.3271 79.8603 42.2771 78.8103 40.9871 78.8103H20.0771C17.2421 78.8103 14.9621 76.7553 14.5421 74.1153C14.4521 73.5453 14.4521 72.9453 14.5421 72.3303L26.0771 16.0653C26.4971 13.4253 28.7771 11.4738 31.4471 11.4738H89.8421C92.5271 11.4738 94.8071 13.4253 95.2271 16.0653L106.762 72.3303C106.822 72.7353 106.852 73.1253 106.822 73.5003Z" stroke="#AAAAAA" stroke-width="2" stroke-linecap="round" stroke-linejoin="round"></path><path d="M24.5762 73.1325L33.6707 28.776C34.0022 26.691 35.8007 25.1565 37.9112 25.1565H83.9462C86.0567 25.1565 87.8552 26.691 88.1867 28.776L97.2812 73.1325" stroke="#AAAAAA" stroke-width="2" stroke-linecap="round" stroke-linejoin="round"></path></svg>
