<svg width="140" height="140" viewBox="0 0 140 140" fill="none" xmlns="http://www.w3.org/2000/svg"><circle opacity="0.34" cx="115" cy="48" r="19" fill="url(#no_personnels_paint0_linear)"></circle><circle opacity="0.3" cx="19" cy="113" r="12" fill="url(#no_personnels_paint1_linear)"></circle><rect x="18" y="15" width="98" height="98" fill="#F7F7F7" stroke="#EAEAEA" stroke-width="2"></rect><path d="M68 49C68 55.6274 62.6274 61 56 61V61C49.3726 61 44 55.6274 44 49V49C44 42.3726 49.3726 37 56 37V37C62.6274 37 68 42.3726 68 49V49Z" fill="url(#no_personnels_paint2_linear)"></path><path d="M82 90V81.1432C82 76.1587 78.9226 71.6783 74.1364 70.2863C68.7249 68.7124 61.4605 67 55.4699 67C49.5649 67 42.7235 68.6637 37.6189 70.2186C32.9522 71.6401 30 76.052 30 80.9304V90H82Z" fill="url(#no_personnels_paint3_linear)"></path><path d="M91.6922 56.6923C91.6922 62.0452 87.3528 66.3846 81.9999 66.3846V66.3846C76.647 66.3846 72.3076 62.0452 72.3076 56.6923V56.6923C72.3076 51.3394 76.647 47 81.9999 47V47C87.3528 47 91.6922 51.3394 91.6922 56.6923V56.6923Z" fill="url(#no_personnels_paint4_linear)"></path><path opacity="0.45" d="M103 89.8077V84.2465C103 79.262 99.924 74.7661 95.1156 73.4526C90.9669 72.3194 85.8645 71.2308 81.5718 71.2308C77.3557 71.2308 72.5485 72.2808 68.6419 73.392C63.9495 74.7267 61 79.1553 61 84.0337V89.8077H103Z" fill="url(#no_personnels_paint5_linear)"></path><defs><linearGradient id="no_personnels_paint0_linear" x1="84.042" y1="28.9132" x2="101.848" y2="75.9029" gradientUnits="userSpaceOnUse"><stop stop-color="#EEEEEE"></stop><stop offset="1" stop-color="#D8D8D8"></stop></linearGradient><linearGradient id="no_personnels_paint1_linear" x1="19" y1="101" x2="19.0007" y2="124.956" gradientUnits="userSpaceOnUse"><stop stop-color="#C8C8C8"></stop><stop offset="1" stop-color="#D5D5D5" stop-opacity="0.4"></stop></linearGradient><linearGradient id="no_personnels_paint2_linear" x1="56" y1="50.125" x2="56" y2="61" gradientUnits="userSpaceOnUse"><stop stop-color="#E0E0E0"></stop><stop offset="1" stop-color="#EAEAEA"></stop></linearGradient><linearGradient id="no_personnels_paint3_linear" x1="55.4699" y1="71.0588" x2="55.9286" y2="94.0585" gradientUnits="userSpaceOnUse"><stop stop-color="#D8D8D8"></stop><stop offset="1" stop-color="#D1D1D1" stop-opacity="0"></stop></linearGradient><linearGradient id="no_personnels_paint4_linear" x1="81.9999" y1="57.601" x2="81.9999" y2="66.3846" gradientUnits="userSpaceOnUse"><stop stop-color="#E0E0E0"></stop><stop offset="1" stop-color="#EAEAEA"></stop></linearGradient><linearGradient id="no_personnels_paint5_linear" x1="81.5718" y1="74.5091" x2="81.9423" y2="93.0857" gradientUnits="userSpaceOnUse"><stop stop-color="#D8D8D8"></stop><stop offset="1" stop-color="#D1D1D1" stop-opacity="0"></stop></linearGradient></defs></svg>
