<svg width="140" height="140" viewBox="0 0 140 140" fill="none" xmlns="http://www.w3.org/2000/svg"><path d="M69.95 20.1734C69.9705 20.162 69.9905 20.151 70.0099 20.1402C70.0359 20.1541 70.0629 20.1684 70.0909 20.1833C70.457 20.3775 70.9887 20.6565 71.654 20.9974C72.9842 21.6789 74.8504 22.6084 76.9955 23.6013C81.2674 25.5785 86.7137 27.8391 91.2458 28.8653C95.4406 29.815 100.653 30.1677 104.777 30.2872C106.848 30.3471 108.66 30.3486 109.954 30.3352C110.355 30.331 110.706 30.3254 111 30.3196V30.3379V30.3781V30.4191V30.4607V30.503V30.5461V30.5899V30.6343V30.6795V30.7253V30.7719V30.8191V30.8671V30.9157V30.965V31.015V31.0656V31.117V31.169V31.2217V31.275V31.3291V31.3838V31.4391V31.4951V31.5518V31.6091V31.667V31.7257V31.7849V31.8448V31.9054V31.9666V32.0284V32.0908V32.1539V32.2176V32.282V32.3469V32.4125V32.4787V32.5455V32.613V32.681V32.7496V32.8189V32.8888V32.9592V33.0303V33.1019V33.1742V33.247V33.3204V33.3944V33.469V33.5442V33.6199V33.6963V33.7732V33.8506V33.9287V34.0073V34.0864V34.1661V34.2464V34.3273V34.4086V34.4906V34.5731V34.6561V34.7397V34.8238V34.9084V34.9936V35.0793V35.1656V35.2523V35.3396V35.4274V35.5158V35.6046V35.694V35.7839V35.8743V35.9652V36.0566V36.1485V36.2409V36.3338V36.4272V36.5211V36.6154V36.7103V36.8057V36.9015V36.9978V37.0946V37.1918V37.2896V37.3878V37.4864V37.5855V37.6851V37.7852V37.8857V37.9866V38.0881V38.1899V38.2922V38.395V38.4982V38.6018V38.7058V38.8103V38.9153V39.0206V39.1264V39.2326V39.3392V39.4463V39.5537V39.6616V39.7699V39.8786V39.9877V40.0972V40.2071V40.3174V40.4281V40.5392V40.6507V40.7625V40.8748V40.9874V41.1004V41.2138V41.3276V41.4417V41.5562V41.6711V41.7864V41.902V42.0179V42.1343V42.2509V42.368V42.4853V42.6031V42.7212V42.8396V42.9583V43.0774V43.1968V43.3166V43.4367V43.5571V43.6779V43.7989V43.9203V44.042V44.164V44.2864V44.409V44.5319V44.6552V44.7787V44.9026V45.0267V45.1512V45.2759V45.4009V45.5262V45.6518V45.7777V45.9039V46.0303V46.157V46.284V46.4112V46.5387V46.6665V46.7945V46.9228V47.0514V47.1802V47.3092V47.4386V47.5681V47.6979V47.8279V47.9582V48.0887V48.2195V48.3504V48.4816V48.6131V48.7447V48.8766V49.0087V49.141V49.2735V49.4063V49.5392V49.6723V49.8057V49.9393V50.073V50.2069V50.3411V50.4754V50.6099V50.7446V50.8795V51.0146V51.1498V51.2852V51.4208V51.5566V51.6925V51.8286V51.9649V52.1013V52.2379V52.3746V52.5115V52.6485V52.7857V52.923V53.0605V53.1981V53.3358V53.4737V53.6117V53.7499V53.8881V54.0265V54.165V54.3037V54.4424V54.5813V54.7203V54.8594V54.9986V55.1379V55.2773V55.4168V55.5564V55.696V55.8358V55.9757V56.1157V56.2557V56.3958V56.536V56.6763V56.8167V56.9571V57.0976V57.2382V57.3788V57.5195V57.6602V57.801V57.9419V58.0828V58.2238V58.3648V58.5058V58.6469V58.788V58.9292V59.0704V59.2116V59.3529V59.4942V59.6355V59.7768V59.9181V60.0595V60.2009V60.3423V60.4837V60.6251V60.7665V60.9079V61.0493V61.1907V61.3321V61.4734V61.6148V61.7562V61.8975V62.0388V62.1801V62.3214V62.4626V62.6039V62.745V62.8862V63.0273V63.1684V63.3094V63.4504V63.5913V63.7322V63.873V64.0138V64.1546V64.2952V64.4358V64.5763V64.7168V64.8572V64.9975V65.1378V65.278V65.418V65.5581V65.698V65.8378V65.9776V66.1172V66.2568V66.3962V66.5356V66.6748V66.814V66.953V67.092V67.2308V67.3695V67.5081V67.6465V67.7849V67.9231V68.0612V68.1991V68.3369V68.4746V68.6122V68.7496V68.8868V69.0239V69.1609V69.2977V69.4344V69.5709V69.7072V69.8434V69.9794V70.1153V70.251V70.3865V70.5218V70.657V70.792V70.9268V71.0614V71.1959V71.3301V71.4642V71.598V71.7317V71.8651V71.9984V72.1315V72.2643V72.3969V72.5294V72.6616V72.7936V72.9254V73.0569V73.1883V73.3194V73.4502V73.5809V73.7113V73.8415V73.9714V74.1011V74.2305V74.3597V74.4887V74.6174V74.7458V74.874V75.0019V75.1296V75.257V75.3841V75.5109V75.6375V75.7638V75.8899V76.0156V76.1411V76.2663V76.3912V76.5158V76.6401V76.7641V76.8878V77.0112V77.1344V77.2572V77.3797V77.5019V77.6237V77.7453V77.8665V77.9875V78.1081V78.2283V78.3483V78.4679V78.5872V78.7061V78.8247V78.943V79.0609V79.1785V79.2957V79.4126V79.5291V79.6453V79.7611V79.8766V79.9917V80.1064V80.2207V80.3347V80.4483V80.5615V80.6744V80.7868V80.8989V81.0106V81.1219V81.2329V81.3434V81.4535V81.5632V81.6726V81.7815V81.89V81.9981V82.1058V82.2131V82.3199V82.4264V82.5324V82.638V82.7432V82.8479V82.9522V83.0561V83.1595V83.2625V83.3651V83.4672V83.5688C111 86.9531 109.145 90.5042 105.997 94.1092C102.864 97.6964 98.5621 101.21 93.9211 104.505C89.2859 107.796 84.3543 110.84 79.9802 113.502C79.4775 113.807 78.9815 114.109 78.4937 114.405C75.0833 116.475 72.0735 118.303 69.9744 119.786C68.2473 118.664 65.9624 117.303 63.3716 115.76C62.2388 115.086 61.0475 114.376 59.8188 113.637C55.4282 110.994 50.5124 107.94 45.9086 104.631C41.2987 101.317 37.0403 97.7737 33.9434 94.1619C30.8317 90.5327 29 86.9591 29 83.5688L29.0001 50.8165L29 35.6686L29 31.0116L29 30.3325C29.3162 30.3425 29.6974 30.353 30.1345 30.3622C31.4921 30.3909 33.3911 30.4077 35.5592 30.3599C39.8774 30.2647 45.3313 29.9126 49.7004 28.8622C54.0571 27.8149 59.2707 25.5524 63.3535 23.5797C65.4042 22.5889 67.1869 21.6627 68.4573 20.984C69.0927 20.6445 69.6004 20.3667 69.95 20.1734Z" fill="#F7F7F7" stroke="#EAEAEA" stroke-width="2"></path><path opacity="0.7" d="M38 39.6698C38 39.6698 47.7076 40.1506 54.1 38.6239C60.4703 37.1025 69.5 32 69.5 32C69.5 32 78.9644 37.1313 85.6 38.6239C91.746 40.0064 101 39.6698 101 39.6698C101 39.6698 101 67.211 101 80.1101C101 91.2661 76.5 102.876 69.5 108C62.15 103.119 37.9998 91.2661 38 80.1101C38.0002 68.9541 38 39.6698 38 39.6698Z" fill="#E6E6E6"></path><path opacity="0.45" fill-rule="evenodd" clip-rule="evenodd" d="M72.7137 71.4289C76.4602 69.9661 79.1143 66.3216 79.1143 62.0571C79.1143 56.5027 74.6115 52 69.0571 52C63.5027 52 59 56.5027 59 62.0571C59 66.3211 61.6536 69.9653 65.3994 71.4284V80.3427C65.3994 82.3625 67.0368 83.9999 69.0566 83.9999C71.0763 83.9999 72.7137 82.3625 72.7137 80.3428V71.4289Z" fill="url(#no_permission_paint0_linear)"></path><defs><linearGradient id="no_permission_paint0_linear" x1="69.0571" y1="54.7428" x2="69.0571" y2="83.9999" gradientUnits="userSpaceOnUse"><stop stop-color="#727272"></stop><stop offset="1" stop-color="#CFCFCF"></stop></linearGradient></defs></svg>
