<svg width="140" height="140" viewBox="0 0 140 140" fill="none" xmlns="http://www.w3.org/2000/svg"><circle opacity="0.34" cx="115" cy="48" r="19" fill="url(#no_personnel_paint0_linear)"></circle><circle opacity="0.3" cx="19" cy="113" r="12" fill="url(#no_personnel_paint1_linear)"></circle><rect x="18" y="15" width="98" height="98" fill="#F7F7F7" stroke="#EAEAEA" stroke-width="2"></rect><path d="M80.3845 47.3269C80.3845 54.7191 74.392 60.7116 66.9999 60.7115V60.7115C59.6077 60.7115 53.6152 54.7191 53.6152 47.3269V47.3269C53.6152 39.9348 59.6077 33.9423 66.9999 33.9423V33.9423C74.392 33.9423 80.3845 39.9348 80.3845 47.3269V47.3269Z" fill="url(#no_personnel_paint2_linear)"></path><path d="M96 93.0577V83.179C96 77.6193 92.5676 72.6219 87.2291 71.0693C81.1931 69.3138 73.0906 67.4039 66.4087 67.4039C59.8224 67.4039 52.1915 69.2595 46.498 70.9938C41.2928 72.5794 38 77.5003 38 82.9416V93.0577H96Z" fill="url(#no_personnel_paint3_linear)"></path><defs><linearGradient id="no_personnel_paint0_linear" x1="84.042" y1="28.9132" x2="101.848" y2="75.9029" gradientUnits="userSpaceOnUse"><stop stop-color="#EEEEEE"></stop><stop offset="1" stop-color="#D8D8D8"></stop></linearGradient><linearGradient id="no_personnel_paint1_linear" x1="19" y1="101" x2="19.0007" y2="124.956" gradientUnits="userSpaceOnUse"><stop stop-color="#C8C8C8"></stop><stop offset="1" stop-color="#D5D5D5" stop-opacity="0.4"></stop></linearGradient><linearGradient id="no_personnel_paint2_linear" x1="66.9998" y1="48.5817" x2="66.9998" y2="60.7116" gradientUnits="userSpaceOnUse"><stop stop-color="#E0E0E0"></stop><stop offset="1" stop-color="#EAEAEA"></stop></linearGradient><linearGradient id="no_personnel_paint3_linear" x1="66.4087" y1="71.931" x2="66.9203" y2="97.5845" gradientUnits="userSpaceOnUse"><stop stop-color="#D8D8D8"></stop><stop offset="1" stop-color="#D1D1D1" stop-opacity="0"></stop></linearGradient></defs></svg>
