<svg width="140" height="140" viewBox="0 0 140 140" fill="none" xmlns="http://www.w3.org/2000/svg"><circle opacity="0.3" cx="23" cy="26" r="12" fill="url(#no_select_paint0_linear)"></circle><circle opacity="0.34" cx="111" cy="108" r="19" fill="url(#no_select_paint1_linear)"></circle><rect x="21" y="28" width="98" height="22" rx="1" fill="#F7F7F7" stroke="#EAEAEA" stroke-width="2"></rect><rect x="21" y="88" width="98" height="22" rx="1" fill="#F7F7F7" stroke="#EAEAEA" stroke-width="2"></rect><g opacity="0.68"><rect x="44" y="93" width="68" height="12" rx="2" fill="url(#no_select_paint2_linear)"></rect></g><g opacity="0.5"><rect x="28" y="93" width="12" height="12" rx="2" fill="url(#no_select_paint3_linear)"></rect></g><path fill-rule="evenodd" clip-rule="evenodd" d="M33.0054 102.089L32.4162 101.5L30.1245 99.2083L30.7138 98.6191L33.0054 100.911L37.5888 96.3274L38.178 96.9167L33.5947 101.5L33.0054 102.089Z" fill="white"></path><rect x="21" y="58" width="98" height="22" rx="1" fill="#F7F7F7" stroke="#EAEAEA" stroke-width="2"></rect><g opacity="0.68"><rect x="44" y="63" width="68" height="12" rx="2" fill="url(#no_select_paint4_linear)"></rect></g><g opacity="0.68"><rect x="44" y="33" width="68" height="12" rx="2" fill="url(#no_select_paint5_linear)"></rect></g><g opacity="0.5"><rect x="28" y="63" width="12" height="12" rx="2" fill="url(#no_select_paint6_linear)"></rect></g><path fill-rule="evenodd" clip-rule="evenodd" d="M33.0054 72.0893L32.4162 71.5L30.1245 69.2083L30.7138 68.6191L33.0054 70.9108L37.5888 66.3274L38.178 66.9167L33.5947 71.5L33.0054 72.0893Z" fill="white"></path><g opacity="0.5"><rect x="28" y="33" width="12" height="12" rx="2" fill="url(#no_select_paint7_linear)"></rect></g><path fill-rule="evenodd" clip-rule="evenodd" d="M33.0054 42.0893L32.4162 41.5L30.1245 39.2083L30.7138 38.6191L33.0054 40.9108L37.5888 36.3274L38.178 36.9167L33.5947 41.5L33.0054 42.0893Z" fill="white"></path><defs><linearGradient id="no_select_paint0_linear" x1="23" y1="14" x2="23.0007" y2="37.9564" gradientUnits="userSpaceOnUse"><stop stop-color="#C8C8C8"></stop><stop offset="1" stop-color="#D5D5D5" stop-opacity="0.4"></stop></linearGradient><linearGradient id="no_select_paint1_linear" x1="80.042" y1="88.9132" x2="97.8477" y2="135.903" gradientUnits="userSpaceOnUse"><stop stop-color="#EEEEEE"></stop><stop offset="1" stop-color="#D8D8D8"></stop></linearGradient><linearGradient id="no_select_paint2_linear" x1="44" y1="98" x2="110.935" y2="99.1285" gradientUnits="userSpaceOnUse"><stop stop-color="#C8C8C8"></stop><stop offset="1" stop-color="#D5D5D5" stop-opacity="0.4"></stop></linearGradient><linearGradient id="no_select_paint3_linear" x1="41.4595" y1="97.875" x2="28" y2="97.875" gradientUnits="userSpaceOnUse"><stop stop-color="#AAAAAA"></stop><stop offset="1" stop-color="#666666"></stop></linearGradient><linearGradient id="no_select_paint4_linear" x1="44" y1="68" x2="110.935" y2="69.1285" gradientUnits="userSpaceOnUse"><stop stop-color="#C8C8C8"></stop><stop offset="1" stop-color="#D5D5D5" stop-opacity="0.4"></stop></linearGradient><linearGradient id="no_select_paint5_linear" x1="44" y1="38" x2="110.935" y2="39.1285" gradientUnits="userSpaceOnUse"><stop stop-color="#C8C8C8"></stop><stop offset="1" stop-color="#D5D5D5" stop-opacity="0.4"></stop></linearGradient><linearGradient id="no_select_paint6_linear" x1="41.4595" y1="67.875" x2="28" y2="67.875" gradientUnits="userSpaceOnUse"><stop stop-color="#AAAAAA"></stop><stop offset="1" stop-color="#666666"></stop></linearGradient><linearGradient id="no_select_paint7_linear" x1="41.4595" y1="37.875" x2="28" y2="37.875" gradientUnits="userSpaceOnUse"><stop stop-color="#AAAAAA"></stop><stop offset="1" stop-color="#666666"></stop></linearGradient></defs></svg>
