<svg width="140" height="140" viewBox="0 0 140 140" fill="none" xmlns="http://www.w3.org/2000/svg"><circle opacity="0.3" cx="25" cy="113" r="12" fill="url(#no_search_result_paint0_linear)"></circle><circle opacity="0.34" cx="107" cy="59" r="19" fill="url(#no_search_result_paint1_linear)"></circle><path d="M109 33.41V114H24V16H91.8366L109 33.41Z" fill="#F7F7F7" stroke="#EAEAEA" stroke-width="2"></path><rect x="75" y="53" width="19" height="4" fill="#E9E9E9"></rect><rect x="39" y="50" width="37" height="8" fill="url(#no_search_result_paint2_linear)"></rect><rect x="42" y="39" width="31" height="5" fill="url(#no_search_result_paint3_linear)"></rect><rect x="42" y="65" width="31" height="6" fill="url(#no_search_result_paint4_linear)"></rect><rect x="42" y="65" width="31" height="6" fill="url(#no_search_result_paint5_linear)"></rect><rect x="42" y="39" width="52" height="4" fill="#E9E9E9"></rect><rect x="42" y="67" width="52" height="4" fill="#E9E9E9"></rect><rect x="42" y="81" width="52" height="4" fill="#E9E9E9"></rect><path d="M66.8711 70.1889L69.2281 67.8319L78.1062 76.71L75.7492 79.067L66.8711 70.1889Z" fill="#BDBDBD"></path><path d="M74.2195 77.5369L76.5765 75.1799L78.9336 75.9655L89.1473 86.1793L85.219 90.1077L75.0052 79.8939L74.2195 77.5369Z" fill="url(#no_search_result_paint6_linear)"></path><circle cx="56.2843" cy="55" r="18" transform="rotate(-45 56.2843 55)" fill="url(#no_search_result_paint7_linear)" stroke="url(#no_search_result_paint8_linear)" stroke-width="4"></circle><path d="M92 15L101 24L110 33H92V15Z" fill="#EAEAEA"></path><defs><linearGradient id="no_search_result_paint0_linear" x1="25" y1="101" x2="25.0007" y2="124.956" gradientUnits="userSpaceOnUse"><stop stop-color="#C8C8C8"></stop><stop offset="1" stop-color="#D5D5D5" stop-opacity="0.4"></stop></linearGradient><linearGradient id="no_search_result_paint1_linear" x1="76.042" y1="39.9132" x2="93.8477" y2="86.9029" gradientUnits="userSpaceOnUse"><stop stop-color="#EEEEEE"></stop><stop offset="1" stop-color="#D8D8D8"></stop></linearGradient><linearGradient id="no_search_result_paint2_linear" x1="39" y1="41" x2="69.749" y2="34.2065" gradientUnits="userSpaceOnUse"><stop offset="0.0249999" stop-color="#DEDEDE"></stop><stop offset="0.907667" stop-color="#EDEDED"></stop></linearGradient><linearGradient id="no_search_result_paint3_linear" x1="42" y1="20.875" x2="84.2079" y2="30.28" gradientUnits="userSpaceOnUse"><stop stop-color="#E9E9E9"></stop><stop offset="1" stop-color="#F1F1F1"></stop></linearGradient><linearGradient id="no_search_result_paint4_linear" x1="42" y1="43.25" x2="84.8269" y2="51.2024" gradientUnits="userSpaceOnUse"><stop stop-color="#E6E6E6"></stop><stop offset="1" stop-color="#F1F1F1"></stop></linearGradient><linearGradient id="no_search_result_paint5_linear" x1="42" y1="43.25" x2="84.8269" y2="51.2024" gradientUnits="userSpaceOnUse"><stop stop-color="#E6E6E6"></stop><stop offset="1" stop-color="#F1F1F1"></stop></linearGradient><linearGradient id="no_search_result_paint6_linear" x1="75.398" y1="76.3584" x2="87.1831" y2="88.1435" gradientUnits="userSpaceOnUse"><stop stop-color="#9F9F9F"></stop><stop offset="1" stop-color="#BFBFBF"></stop></linearGradient><linearGradient id="no_search_result_paint7_linear" x1="56.2843" y1="35" x2="56.2843" y2="75" gradientUnits="userSpaceOnUse"><stop stop-color="#C6C6C6" stop-opacity="0.45"></stop><stop offset="1" stop-color="white" stop-opacity="0.15"></stop></linearGradient><linearGradient id="no_search_result_paint8_linear" x1="53.2548" y1="35" x2="62.0937" y2="72.8302" gradientUnits="userSpaceOnUse"><stop stop-color="#A7A7A7" stop-opacity="0.8"></stop><stop offset="1" stop-color="#DDDDDD"></stop></linearGradient></defs></svg>
