<svg width="141" height="140" viewBox="0 0 141 140" fill="none" xmlns="http://www.w3.org/2000/svg"><circle opacity="0.34" cx="118" cy="46" r="19" fill="url(#no_tag_paint0_linear)"></circle><g opacity="0.85"><path d="M83.7477 38.4402L56.3578 79.8171L95.8942 105.989L122.975 65.078L120.336 48.3657L99.4276 34.525L83.7477 38.4402Z" fill="url(#no_tag_paint1_linear)"></path><path fill-rule="evenodd" clip-rule="evenodd" d="M56.3578 79.8171L83.7477 38.4402L99.4276 34.525L120.336 48.3657L122.975 65.078L95.8942 105.989L56.3578 79.8171ZM95.5813 104.007L121.508 64.8413L119.052 49.2897L99.0788 36.0684L84.5391 39.6989L58.3041 79.3311L95.5813 104.007Z" fill="#EAEAEA"></path><path d="M107.263 55.6811C105.459 58.4066 101.974 59.2769 99.4781 57.625C96.9827 55.9731 96.4223 52.4246 98.2264 49.6991C100.031 46.9736 103.516 46.1033 106.012 47.7552C108.507 49.4071 109.067 52.9556 107.263 55.6811Z" fill="url(#no_tag_paint2_linear)"></path><path fill-rule="evenodd" clip-rule="evenodd" d="M116.278 28.3278C116.164 27.1407 115.725 26.4591 114.926 26.1265C114.312 25.8713 113.832 25.8934 113.417 26.0477C112.968 26.2142 112.452 26.5897 111.879 27.2811C110.709 28.6934 109.6 31.0589 108.571 34.0857C106.804 39.2815 105.452 45.8584 104.304 51.4454C104.123 52.3232 103.894 53.0679 103.723 53.8877L103.68 53.9545C102.978 55.0532 101.301 54.7688 101 53.5V53.5C101.167 52.7 101.393 51.9684 101.572 51.0978C102.715 45.5323 104.112 38.73 105.948 33.3289C107.003 30.2267 108.264 27.3939 109.826 25.508C110.619 24.5502 111.56 23.7515 112.669 23.34C113.81 22.9162 114.988 22.9565 116.142 23.4367C118.049 24.2304 118.872 25.9369 119.053 27.814C119.227 29.63 118.826 31.7249 118.22 33.7181C117.002 37.7229 114.778 41.8751 113.484 43.83L111.225 42.3345C112.381 40.5882 114.454 36.7164 115.566 33.0593C116.125 31.2216 116.398 29.576 116.278 28.3278Z" fill="url(#no_tag_paint3_linear)"></path><path d="M81.2672 66.1098L80.5126 67.2497L77.1283 65.0095L81.0957 59.016L82.2976 59.8116L79.0848 64.6651L81.2672 66.1098Z" fill="#B7B7B7"></path><path d="M86.3769 68.9954L84.147 67.5193L82.6893 68.6906L81.4399 67.8636L87.4554 63.2258L89.0685 64.2936L87.1332 71.6323L85.8601 70.7896L86.3769 68.9954ZM86.7493 67.6769L87.5411 64.9345L87.4462 64.8717L85.2152 66.6614L86.7493 67.6769Z" fill="#B7B7B7"></path><path d="M92.287 66.4242L94.1373 67.649C94.538 67.9142 94.8472 68.1686 95.065 68.4122C95.2867 68.65 95.4282 68.8886 95.4896 69.128C95.5601 69.3651 95.5603 69.6053 95.4902 69.8487C95.42 70.0921 95.2954 70.3491 95.1163 70.6197C94.9105 70.9306 94.681 71.1513 94.4278 71.2818C94.1746 71.4123 93.8673 71.4241 93.5059 71.3173L93.483 71.3519C94.008 71.9561 94.0227 72.6324 93.5273 73.3809C93.3481 73.6515 93.1545 73.8752 92.9465 74.0521C92.7422 74.2233 92.5114 74.3314 92.2542 74.3764C92.006 74.4191 91.7235 74.3936 91.4066 74.2997C91.0934 74.2 90.7366 74.0176 90.3359 73.7524L88.3196 72.4177L92.287 66.4242ZM92.2572 69.9567C92.4522 70.0858 92.624 70.1871 92.7725 70.2605C92.9301 70.3317 93.0708 70.3711 93.1947 70.3786C93.3187 70.3861 93.4322 70.3577 93.5354 70.2935C93.6385 70.2293 93.7396 70.1224 93.8387 69.9727C93.9416 69.8172 94.0025 69.6795 94.0213 69.5595C94.0401 69.4394 94.0218 69.3238 93.9665 69.2127C93.9165 69.1051 93.8241 68.9984 93.6894 68.8926C93.5585 68.7811 93.3955 68.6608 93.2005 68.5317L92.7972 68.2648L91.8539 69.6897L92.2572 69.9567ZM90.7724 72.5261C90.9833 72.6657 91.1649 72.7693 91.3172 72.837C91.4748 72.9082 91.6129 72.9458 91.7315 72.9498C91.854 72.9481 91.9634 72.9087 92.0598 72.8318C92.1615 72.7583 92.2638 72.6439 92.3667 72.4884C92.4582 72.3503 92.5179 72.22 92.5458 72.0977C92.5789 71.9789 92.5724 71.8628 92.5262 71.7494C92.489 71.6337 92.4069 71.5172 92.2798 71.4C92.1565 71.277 91.9895 71.1457 91.7786 71.0061L91.2251 70.6397L90.2189 72.1597L90.7724 72.5261Z" fill="#B7B7B7"></path><path d="M98.2298 77.3383L97.4751 78.4783L94.0118 76.1857L97.9792 70.1922L101.332 72.4115L100.577 73.5515L98.4265 72.1278L97.609 73.3627L99.6016 74.6818L98.8756 75.7786L96.883 74.4595L95.9683 75.8413L98.2298 77.3383Z" fill="#B7B7B7"></path><path d="M103.156 80.5991L102.401 81.739L99.0167 79.4987L102.984 73.5053L104.186 74.3009L100.973 79.1544L103.156 80.5991Z" fill="#B7B7B7"></path></g><path d="M13.3145 68.6107L34.9913 132.087L101.235 109.466L79.8027 46.7043L58.388 36.1923L23.3553 48.1557L13.3145 68.6107Z" fill="url(#no_tag_paint4_linear)"></path><path fill-rule="evenodd" clip-rule="evenodd" d="M34.9913 132.087L13.3145 68.6107L23.3553 48.1557L58.388 36.1923L79.8027 46.7043L101.235 109.466L34.9913 132.087ZM98.6962 108.219L78.1777 48.1346L58.2504 38.3527L24.7856 49.7807L15.4749 68.7483L36.2376 129.548L98.6962 108.219Z" fill="#EAEAEA"></path><path d="M54.6169 56.5007C56.0448 60.6819 53.8128 65.2289 49.6316 66.6568C45.4504 68.0846 40.9033 65.8526 39.4755 61.6714C38.0476 57.4902 40.2797 52.9431 44.4609 51.5153C48.6421 50.0875 53.1891 52.3195 54.6169 56.5007Z" fill="url(#no_tag_paint5_linear)"></path><path fill-rule="evenodd" clip-rule="evenodd" d="M31.8864 24.5754C30.4331 23.7476 29.2536 23.6847 28.1374 24.2999C27.2809 24.772 26.8625 25.3199 26.6538 25.9023C26.4284 26.5314 26.3779 27.4029 26.6338 28.5906C27.1565 31.0169 28.8174 34.1419 31.3034 37.7096C35.5708 43.8338 41.7898 50.6096 47.0726 56.3655C47.9027 57.2699 48.7097 58.1491 49.4823 58.9966V58.9966C50.2935 60.7726 48.4502 62.5958 46.6833 61.7652L46.5263 61.6914C45.7723 60.8643 44.9776 59.9988 44.1542 59.102C38.8907 53.3692 32.4576 46.3626 28.0215 39.9964C25.4736 36.3398 23.4215 32.6727 22.7235 29.4329C22.3691 27.7876 22.3313 26.1075 22.8882 24.5531C23.4618 22.9522 24.5953 21.6849 26.2065 20.7968C28.87 19.3287 31.5683 19.7908 33.8662 21.0997C36.0894 22.3661 38.0977 24.4914 39.8009 26.7619C43.2228 31.3237 45.8833 37.1138 46.9074 40.1129L43.1221 41.4056C42.2073 38.7267 39.726 33.328 36.6011 29.1622C35.0308 27.0689 33.4144 25.4458 31.8864 24.5754Z" fill="url(#no_tag_paint6_linear)"></path><path d="M42.4407 93.5772L43.0379 95.326L37.3674 97.2624L34.2275 88.0678L36.2414 87.3801L38.784 94.8259L42.4407 93.5772Z" fill="#B7B7B7"></path><path d="M50.4379 90.2544L46.7018 91.5303L46.685 94.0805L44.5917 94.7954L44.8833 84.4289L47.586 83.5059L54.1309 91.5378L51.9978 92.2663L50.4379 90.2544ZM49.2849 88.7841L46.9026 85.7069L46.7436 85.7612L46.7147 89.6619L49.2849 88.7841Z" fill="#B7B7B7"></path><path d="M52.9788 81.6644L56.079 80.6057C56.7503 80.3764 57.3248 80.2394 57.8026 80.1946C58.2774 80.1409 58.6791 80.1764 59.0076 80.3009C59.342 80.4135 59.6149 80.6063 59.8265 80.8793C60.0381 81.1522 60.2147 81.4962 60.3565 81.9114C60.5194 82.3883 60.5579 82.819 60.4722 83.2033C60.3865 83.5876 60.116 83.9364 59.6608 84.2497L59.6789 84.3027C60.85 84.2085 61.6316 84.7355 62.0237 85.8837C62.1654 86.2989 62.2406 86.6924 62.2493 87.0642C62.2549 87.4272 62.1644 87.7687 61.9779 88.0889C61.7971 88.3972 61.507 88.6885 61.1076 88.963C60.7052 89.2286 60.1684 89.4761 59.4971 89.7053L56.1187 90.859L52.9788 81.6644ZM56.9622 84.5351C57.289 84.4235 57.5627 84.3152 57.7833 84.2103C58.0098 84.0935 58.1845 83.9698 58.3075 83.839C58.4305 83.7082 58.5032 83.5601 58.5256 83.3947C58.548 83.2292 58.52 83.0317 58.4416 82.802C58.3601 82.5635 58.2599 82.3857 58.141 82.2685C58.0221 82.1513 57.874 82.0786 57.6967 82.0504C57.5282 82.0192 57.3217 82.0354 57.0772 82.0992C56.8297 82.1542 56.5425 82.2374 56.2157 82.349L55.54 82.5798L56.2866 84.7658L56.9622 84.5351ZM58.5079 88.2383C58.8612 88.1176 59.1467 88.0004 59.3643 87.8867C59.5907 87.7699 59.761 87.6476 59.8751 87.5199C59.9863 87.3833 60.0427 87.2309 60.0445 87.0626C60.055 86.8914 60.0196 86.6865 59.9381 86.448C59.8657 86.236 59.773 86.0655 59.6599 85.9365C59.5556 85.8044 59.4177 85.7184 59.2463 85.6783C59.0806 85.6264 58.8725 85.6235 58.6219 85.6696C58.3684 85.7069 58.065 85.7858 57.7117 85.9065L56.7842 86.2232L57.5805 88.555L58.5079 88.2383Z" fill="#B7B7B7"></path><path d="M70.8618 83.8716L71.459 85.6204L65.656 87.6021L62.5161 78.4074L68.1336 76.4891L68.7308 78.2379L65.1272 79.4686L65.7741 81.3631L69.1128 80.223L69.6874 81.9056L66.3487 83.0457L67.0726 85.1655L70.8618 83.8716Z" fill="#B7B7B7"></path><path d="M79.1151 81.0531L79.7124 82.802L74.0419 84.7384L70.902 75.5437L72.9158 74.856L75.4585 82.3018L79.1151 81.0531Z" fill="#B7B7B7"></path><defs><linearGradient id="no_tag_paint0_linear" x1="87.042" y1="26.9132" x2="104.848" y2="73.9029" gradientUnits="userSpaceOnUse"><stop stop-color="#EEEEEE"></stop><stop offset="1" stop-color="#D8D8D8"></stop></linearGradient><linearGradient id="no_tag_paint1_linear" x1="110.095" y1="41.5866" x2="76.126" y2="92.9029" gradientUnits="userSpaceOnUse"><stop stop-color="#F7F7F7"></stop><stop offset="1" stop-color="#F7F7F7"></stop></linearGradient><linearGradient id="no_tag_paint2_linear" x1="106.012" y1="47.7552" x2="99.4781" y2="57.625" gradientUnits="userSpaceOnUse"><stop stop-color="#B1B1B1"></stop><stop offset="1" stop-color="#F3F3F3"></stop></linearGradient><linearGradient id="no_tag_paint3_linear" x1="113.935" y1="21.0616" x2="100.98" y2="52.6075" gradientUnits="userSpaceOnUse"><stop stop-color="#DEDEDE"></stop><stop offset="1" stop-color="#BDBDBD"></stop></linearGradient><linearGradient id="no_tag_paint4_linear" x1="41.2294" y1="42.0519" x2="68.1132" y2="120.777" gradientUnits="userSpaceOnUse"><stop stop-color="#F7F7F7"></stop><stop offset="1" stop-color="#F7F7F7"></stop></linearGradient><linearGradient id="no_tag_paint5_linear" x1="44.4609" y1="51.5153" x2="49.6316" y2="66.6568" gradientUnits="userSpaceOnUse"><stop stop-color="#B1B1B1"></stop><stop offset="1" stop-color="#F3F3F3"></stop></linearGradient><linearGradient id="no_tag_paint6_linear" x1="21.4709" y1="21.3251" x2="43.965" y2="61.7234" gradientUnits="userSpaceOnUse"><stop stop-color="#DEDEDE"></stop><stop offset="1" stop-color="#BDBDBD"></stop></linearGradient></defs></svg>
